# xmcd
#
# Track frame offsets:
#	150
#	12044
#	25830
#	36842
#	48359
#	61659
#	73637
#	88069
#	102026
#	115487
#	131861
#	144665
#	158475
#	170742
#
# Disc length: 2512 seconds
#
# Revision: 1
# Processed by: cddbd v1.5.2PL0 Copyright (c) Steve Scherf et al.
# Submitted via: audiograbber 1.83.01
#
DISCID=b809ce0e
DTITLE=Sam and Dave - Soul Man
DYEAR=2005
DGENRE=Soul
TTITLE0=Respect
TTITLE1=Gimme Some Lovin'
TTITLE2=Bring It On Home To Me
TTITLE3=Land Of A Thousand Dances
TTITLE4=(Sittin' On) The Dock Of A Bay
TTITLE5=Hold On I'm Comin'
TTITLE6=You Send Me
TTITLE7=Wonderful World
TTITLE8=Good Lovin'
TTITLE9=Love The One You're With
TTITLE10=Said I Wasn't Gonna Tell Nobody
TTITLE11=Don't Pull Your Love
TTITLE12=You Don't Know Like I Know
TTITLE13=Mustang Sally
EXTD=Sampler CD 2
EXTT0=
EXTT1=
EXTT2=
EXTT3=
EXTT4=
EXTT5=
EXTT6=
EXTT7=
EXTT8=
EXTT9=
EXTT10=
EXTT11=
EXTT12=
EXTT13=
PLAYORDER=
